<svg width="4em" height="4em" viewBox="0 0 64 64" xmlns="http://www.w3.org/2000/svg" transform-origin="38.3984px 38.3984px" style="opacity: 1; visibility: visible; display: block;" display="block" data-level="73" tenwebX_tlevel="13" xmlns:xlink="http://www.w3.org/1999/xlink">
                                                        <path fill-rule="evenodd" clip-rule="evenodd" d="M50 55H15C14.4477 55 14 54.5523 14 54V10C14 9.44772 14.4477 9 15 9H36V16.1818C36 18.4545 36.7619 20.4261 38.1679 21.8321C39.5739 23.2381 41.5455 24 43.8182 24H51V54C51 54.5523 50.5523 55 50 55ZM49.5315 22L38 10.7663V16.1818C38 18 38.6017 19.4375 39.5821 20.4179C40.5625 21.3983 42 22 43.8182 22H49.5315ZM15 57H50C51.6569 57 53 55.6569 53 54V23.4306C53 22.8911 52.782 22.3745 52.3956 21.998L37.5825 7.56741C37.209 7.2036 36.7082 7 36.1869 7H15C13.3431 7 12 8.34315 12 10V54C12 55.6569 13.3431 57 15 57ZM19 24C19 23.4477 19.4477 23 20 23H28C28.5523 23 29 23.4477 29 24C29 24.5523 28.5523 25 28 25H20C19.4477 25 19 24.5523 19 24ZM20 28C19.4477 28 19 28.4477 19 29C19 29.5523 19.4477 30 20 30H45C45.5523 30 46 29.5523 46 29C46 28.4477 45.5523 28 45 28H20ZM19 34C19 33.4477 19.4477 33 20 33H45C45.5523 33 46 33.4477 46 34C46 34.5523 45.5523 35 45 35H20C19.4477 35 19 34.5523 19 34ZM20 38C19.4477 38 19 38.4477 19 39C19 39.5523 19.4477 40 20 40H45C45.5523 40 46 39.5523 46 39C46 38.4477 45.5523 38 45 38H20ZM19 44C19 43.4477 19.4477 43 20 43H45C45.5523 43 46 43.4477 46 44C46 44.5523 45.5523 45 45 45H20C19.4477 45 19 44.5523 19 44ZM20 48C19.4477 48 19 48.4477 19 49C19 49.5523 19.4477 50 20 50H31C31.5523 50 32 49.5523 32 49C32 48.4477 31.5523 48 31 48H20Z" data-level="74" style="opacity:1;stroke-width:1px;stroke-linecap:butt;stroke-linejoin:miter;transform-origin:0px 0px;display:inline;" fill="rgb(255, 255, 255)"></path>
                                                    </svg>